<svg width="24" height="24" viewBox="0 0 24 24" fill="none" xmlns="http://www.w3.org/2000/svg">
<path d="M12.6667 20V14.6667C12.6667 14.1362 12.8774 13.6275 13.2525 13.2525C13.6275 12.8774 14.1362 12.6667 14.6667 12.6667H20C20.5304 12.6667 21.0391 12.8774 21.4142 13.2525C21.7893 13.6275 22 14.1362 22 14.6667V20C22 20.5304 21.7893 21.0391 21.4142 21.4142C21.0391 21.7893 20.5304 22 20 22H14.6667C14.1362 22 13.6275 21.7893 13.2525 21.4142C12.8774 21.0391 12.6667 20.5304 12.6667 20ZM20 20.6667C20.1768 20.6667 20.3464 20.5964 20.4714 20.4714C20.5964 20.3464 20.6667 20.1768 20.6667 20V14.6667C20.6667 14.4899 20.5964 14.3203 20.4714 14.1953C20.3464 14.0702 20.1768 14 20 14H14.6667C14.4899 14 14.3203 14.0702 14.1953 14.1953C14.0702 14.3203 14 14.4899 14 14.6667V20C14 20.1768 14.0702 20.3464 14.1953 20.4714C14.3203 20.5964 14.4899 20.6667 14.6667 20.6667H20Z" fill="#53BCF2"/>
<path d="M2 20V14.6667C2 14.1362 2.21072 13.6275 2.58579 13.2525C2.96086 12.8774 3.46957 12.6667 4 12.6667H9.33334C9.86377 12.6667 10.3725 12.8774 10.7475 13.2525C11.1226 13.6275 11.3333 14.1362 11.3333 14.6667V20C11.3333 20.5304 11.1226 21.0391 10.7475 21.4142C10.3725 21.7893 9.86377 22 9.33334 22H4C3.46957 22 2.96086 21.7893 2.58579 21.4142C2.21072 21.0391 2 20.5304 2 20ZM9.33334 20.6667C9.51015 20.6667 9.67972 20.5964 9.80474 20.4714C9.92977 20.3464 10 20.1768 10 20V14.6667C10 14.4899 9.92977 14.3203 9.80474 14.1953C9.67972 14.0702 9.51015 14 9.33334 14H4C3.82319 14 3.65362 14.0702 3.5286 14.1953C3.40357 14.3203 3.33334 14.4899 3.33334 14.6667L3.33334 20C3.33334 20.1768 3.40357 20.3464 3.5286 20.4714C3.65362 20.5964 3.82319 20.6667 4 20.6667H9.33334Z" fill="#53BCF2"/>
<path d="M11.3333 6.66666C11.3333 7.58964 11.0596 8.49189 10.5469 9.25932C10.0341 10.0267 9.30525 10.6249 8.45252 10.9781C7.5998 11.3313 6.66149 11.4237 5.75625 11.2437C4.851 11.0636 4.01948 10.6191 3.36684 9.96649C2.71419 9.31385 2.26974 8.48233 2.08967 7.57708C1.90961 6.67184 2.00202 5.73353 2.35523 4.8808C2.70844 4.02808 3.30658 3.29925 4.07401 2.78647C4.84144 2.27369 5.74369 1.99999 6.66667 1.99999C7.90391 2.0014 9.09008 2.49352 9.96494 3.36839C10.8398 4.24325 11.3319 5.42942 11.3333 6.66666ZM3.33334 6.66666C3.33334 7.32593 3.52883 7.9704 3.8951 8.51856C4.26138 9.06672 4.78197 9.49397 5.39106 9.74626C6.00014 9.99855 6.67037 10.0646 7.31697 9.93594C7.96357 9.80733 8.55752 9.48986 9.02369 9.02368C9.48987 8.55751 9.80734 7.96356 9.93595 7.31696C10.0646 6.67036 9.99856 6.00013 9.74627 5.39105C9.49398 4.78196 9.06673 4.26136 8.51857 3.89509C7.97041 3.52882 7.32594 3.33333 6.66667 3.33333C5.78294 3.33438 4.93571 3.68591 4.31082 4.31081C3.68592 4.9357 3.33439 5.78293 3.33334 6.66666Z" fill="#53BCF2"/>
<path d="M22 4V9.33333C22 9.86376 21.7893 10.3725 21.4142 10.7475C21.0391 11.1226 20.5304 11.3333 20 11.3333H14.6667C14.1362 11.3333 13.6275 11.1226 13.2525 10.7475C12.8774 10.3725 12.6667 9.86376 12.6667 9.33333V4C12.6667 3.46956 12.8774 2.96086 13.2525 2.58578C13.6275 2.21071 14.1362 2 14.6667 2H20C20.5304 2 21.0391 2.21071 21.4142 2.58578C21.7893 2.96086 22 3.46956 22 4ZM14.6667 3.33333C14.4899 3.33333 14.3203 3.40357 14.1953 3.52859C14.0702 3.65362 14 3.82318 14 4V9.33333C14 9.51014 14.0702 9.67971 14.1953 9.80473C14.3203 9.92976 14.4899 10 14.6667 10H20C20.1768 10 20.3464 9.92976 20.4714 9.80473C20.5964 9.67971 20.6667 9.51014 20.6667 9.33333V4C20.6667 3.82318 20.5964 3.65362 20.4714 3.52859C20.3464 3.40357 20.1768 3.33333 20 3.33333L14.6667 3.33333Z" fill="#53BCF2"/>
</svg>
