<svg width="22" height="16" viewBox="0 0 22 16" fill="none" xmlns="http://www.w3.org/2000/svg">
<path d="M19.2556 0.0232544C19.1935 0.0393953 19.0959 0.0684495 19.0382 0.0942755C18.9184 0.145927 17.1438 1.86012 17.0773 1.98602C16.9797 2.17971 17.0906 2.39278 17.3568 2.51222C17.4677 2.56065 17.583 2.57679 17.827 2.57679H18.1465V2.71237C18.1465 2.92221 18.0267 3.24503 17.8758 3.45164C17.6984 3.69053 17.4233 3.89713 17.0373 4.08114C16.7179 4.22964 16.6469 4.31035 16.7001 4.46208C16.7356 4.57184 18.2973 5.41763 18.4614 5.41763C18.6212 5.41763 19.189 5.10772 19.575 4.81073C20.2449 4.29098 20.7019 3.62919 20.8527 2.96418C20.9459 2.53482 20.9015 2.57679 21.2476 2.57679C21.6025 2.57679 21.8021 2.50254 21.9308 2.31853C22.0861 2.09901 22.0462 2.0409 21.1056 1.11763C20.6265 0.649531 20.1917 0.233089 20.1384 0.191123C19.9344 0.032939 19.5484 -0.0413103 19.2556 0.0232544ZM20.3869 1.27581L21.1677 2.04413L20.7817 2.06027C20.3292 2.07964 20.2316 2.13452 20.2316 2.36695C20.2316 2.8415 19.9832 3.47424 19.6282 3.90682C19.4153 4.16185 18.8386 4.64286 18.5857 4.77521L18.4614 4.83978L18.071 4.62672L17.6762 4.41365L18.0134 4.16508C18.599 3.73249 18.9007 3.14818 18.843 2.55419C18.7986 2.12483 18.7232 2.0635 18.2263 2.06027C18.0355 2.06027 17.8803 2.05381 17.8803 2.04413C17.8803 2.03444 18.2307 1.68579 18.6567 1.26935C19.2023 0.736694 19.4552 0.510717 19.5173 0.510717C19.5794 0.510717 19.8323 0.736694 20.3869 1.27581Z" fill="white"/>
<path d="M10.2007 1.06921C10.0897 1.09181 9.90785 1.14992 9.80137 1.19512C9.69046 1.24354 8.04895 2.27012 6.15455 3.47748L2.70738 5.6759H2.49443C1.56276 5.6759 0.666586 6.08266 0.2673 6.68957C0.174133 6.83484 0.0765299 7.03822 0.0499108 7.14152C-0.0166369 7.40947 -0.0166369 14.2727 0.0499108 14.5406C0.205189 15.1669 0.875102 15.706 1.77571 15.9288C2.01085 15.9869 2.32141 15.9901 10.1164 15.9901C17.9113 15.9901 18.2219 15.9869 18.457 15.9288C19.2645 15.7286 19.8101 15.3412 20.1074 14.7569C20.1961 14.5826 20.205 14.4954 20.2227 13.6141L20.2405 12.6553L20.4801 12.6327C20.8084 12.6037 21.2875 12.4229 21.5182 12.2421C21.6202 12.1614 21.7666 12 21.8421 11.8806L21.984 11.6643V10.8411V10.0179L21.8421 9.80159C21.7666 9.68214 21.6202 9.52073 21.5182 9.44003C21.2875 9.25924 20.8084 9.07846 20.4756 9.04941L20.2316 9.02681V8.18101C20.2316 7.71615 20.2094 7.24805 20.1828 7.14152C20.1074 6.82838 19.8368 6.46037 19.4996 6.21502C19.1624 5.96644 18.6567 5.76952 18.2174 5.71142C18.071 5.69205 17.4277 5.6759 16.7889 5.6759H15.6221L15.6088 4.74617C15.5955 3.86487 15.591 3.80999 15.4934 3.63566C15.3426 3.36449 15.0187 3.11914 14.6061 2.97387C14.2867 2.85766 14.2468 2.8512 13.843 2.8512C13.4216 2.8512 13.4171 2.8512 12.938 3.01907C12.6762 3.11269 12.45 3.19016 12.4411 3.19016C12.4322 3.19016 12.4233 2.96742 12.4233 2.69624C12.4233 2.1313 12.3657 1.91501 12.1438 1.64384C11.851 1.28873 11.332 1.06276 10.7463 1.04016C10.5467 1.0337 10.3204 1.04339 10.2007 1.06921ZM11.119 1.63416C11.3187 1.7084 11.4917 1.83753 11.607 1.99572C11.678 2.09256 11.6913 2.1991 11.7046 2.77695L11.7179 3.44519L8.65231 4.56216L5.58668 5.6759L4.69938 5.66945L3.81207 5.65976L6.89545 3.69054C8.6878 2.54775 10.0809 1.68258 10.214 1.63093C10.4136 1.55022 10.4846 1.54054 10.6975 1.55345C10.8306 1.56313 11.0214 1.59864 11.119 1.63416ZM14.2024 3.4C14.3133 3.42905 14.4775 3.5033 14.5706 3.56787C14.8856 3.79062 14.8856 3.78416 14.8989 4.77845L14.9122 5.6759L11.0613 5.67268H7.21044L10.0942 4.62027C11.6825 4.03919 13.1288 3.51944 13.3107 3.45811C13.6833 3.33866 13.9007 3.32575 14.2024 3.4ZM18.5102 6.32801C18.914 6.47328 19.1624 6.66052 19.3576 6.96074L19.4996 7.17703L19.5129 8.10354L19.5262 9.03004L17.5165 9.03972L15.5067 9.04941L15.2405 9.1398C14.7658 9.30121 14.4775 9.57561 14.3044 10.0372C14.1891 10.3342 14.1891 11.3479 14.3044 11.6449C14.4775 12.1065 14.7658 12.3809 15.2405 12.5424L15.5067 12.6327L17.5165 12.6424L19.5262 12.6521L19.5129 13.5786L19.4996 14.5051L19.3576 14.7214C19.1624 15.0216 18.914 15.2089 18.5102 15.3542L18.1731 15.4736H10.1208H2.06409L1.76684 15.3703C1.35425 15.2282 1.09693 15.0475 0.897285 14.7537L0.733134 14.5084V10.8443V7.17703L0.875102 6.96074C0.950523 6.8413 1.09693 6.67988 1.19453 6.60241C1.38974 6.44745 1.79346 6.27636 2.06852 6.22793C2.17056 6.21179 5.49795 6.20211 10.2095 6.20211L18.1731 6.20856L18.5102 6.32801ZM20.5599 9.58852C20.8039 9.64018 21.1722 9.90812 21.2431 10.0857C21.3141 10.2665 21.3141 11.4157 21.2431 11.5965C21.1722 11.774 20.8039 12.042 20.5599 12.0936C20.3203 12.1453 15.8572 12.1485 15.6043 12.0969C15.3426 12.0452 15.1474 11.8773 15.032 11.6062C14.9433 11.4028 14.93 11.3059 14.93 10.8411C14.93 10.3762 14.9433 10.2794 15.032 10.076C15.1429 9.81127 15.3426 9.63695 15.5866 9.5853C15.8128 9.53687 20.3381 9.5401 20.5599 9.58852Z" fill="white"/>
<path d="M16.7046 9.83709C16.2964 9.91457 15.9371 10.1276 15.7507 10.4053C15.6664 10.5376 15.6443 10.6183 15.6443 10.8411C15.6398 11.0929 15.6531 11.1316 15.7907 11.3188C15.9592 11.5448 16.1012 11.6417 16.434 11.7708C16.6247 11.8418 16.7179 11.8547 17.0373 11.8547C17.3567 11.8547 17.4499 11.8418 17.6407 11.7708C17.9734 11.6417 18.1154 11.5448 18.284 11.3188C18.4215 11.1316 18.4348 11.0929 18.4304 10.8411C18.4304 10.6086 18.4126 10.5408 18.315 10.402C18.142 10.1599 18.0045 10.0566 17.7072 9.94039C17.4189 9.83063 16.9796 9.78221 16.7046 9.83709ZM17.3168 10.3697C17.7738 10.5086 17.8847 10.9411 17.5298 11.1994C17.2414 11.4092 16.8332 11.4092 16.5449 11.1994C15.9947 10.8023 16.6025 10.1502 17.3168 10.3697Z" fill="white"/>
</svg>
