<svg width="351" height="20" viewBox="0 0 351 20" fill="none" xmlns="http://www.w3.org/2000/svg">
<path d="M4.52415 15.169C3.73864 15.1657 3.06747 14.9586 2.51065 14.5476C1.95384 14.1366 1.52794 13.5384 1.23295 12.7528C0.937974 11.9673 0.790483 11.0211 0.790483 9.91406C0.790483 8.81037 0.937974 7.86742 1.23295 7.08523C1.53125 6.30303 1.95881 5.70644 2.51562 5.29545C3.07576 4.88447 3.74527 4.67898 4.52415 4.67898C5.30303 4.67898 5.97088 4.88613 6.5277 5.30043C7.08452 5.71141 7.51042 6.308 7.8054 7.0902C8.10369 7.86908 8.25284 8.81037 8.25284 9.91406C8.25284 11.0244 8.10535 11.9723 7.81037 12.7578C7.51539 13.54 7.08949 14.1383 6.53267 14.5526C5.97585 14.9635 5.30634 15.169 4.52415 15.169ZM4.52415 13.8416C5.21354 13.8416 5.75213 13.5052 6.13991 12.8324C6.53101 12.1596 6.72656 11.1868 6.72656 9.91406C6.72656 9.06889 6.63707 8.35464 6.4581 7.77131C6.28243 7.18466 6.02888 6.74053 5.69744 6.43892C5.36932 6.134 4.97822 5.98153 4.52415 5.98153C3.83807 5.98153 3.29948 6.3196 2.90838 6.99574C2.51728 7.67187 2.32008 8.64465 2.31676 9.91406C2.31676 10.7625 2.40459 11.4801 2.58026 12.0668C2.75923 12.6501 3.01278 13.0926 3.34091 13.3942C3.66903 13.6925 4.06345 13.8416 4.52415 13.8416Z" fill="#A0AEC0"/>
<line x1="47" y1="9.5" x2="373" y2="9.5" stroke="#CBD5E0"/>
</svg>
