<svg width="24" height="25" viewBox="0 0 24 25" fill="none" xmlns="http://www.w3.org/2000/svg">
<g clip-path="url(#clip0_1168_145)">
<path d="M1.95 24.0495C1.90361 24.0507 1.85842 24.034 1.8232 24.0025C1.78797 23.971 1.76519 23.9271 1.75929 23.8791C1.75338 23.8312 1.76475 23.7826 1.7912 23.7429C1.81766 23.7032 1.85731 23.6751 1.9025 23.6641L3.685 23.1771C3.4775 21.8281 2.8425 17.1719 2.7025 16.1458L0.785003 16.5052C0.760699 16.5101 0.735704 16.51 0.711461 16.5047C0.687218 16.4995 0.664206 16.4894 0.643753 16.4748C0.6233 16.4603 0.605811 16.4417 0.592295 16.4201C0.578778 16.3985 0.569503 16.3743 0.565003 16.349C0.556839 16.298 0.567883 16.2457 0.59583 16.203C0.623777 16.1603 0.666469 16.1305 0.715003 16.1198L2.825 15.7162C2.84985 15.7113 2.87537 15.7118 2.90004 15.7175C2.92472 15.7232 2.94803 15.734 2.96858 15.7493C2.98912 15.7647 3.00649 15.7842 3.01962 15.8066C3.03276 15.8291 3.04139 15.8542 3.045 15.8802C3.045 15.9427 3.8925 22.112 4.0825 23.2786C4.09038 23.3264 4.08092 23.3755 4.05597 23.4164C4.03102 23.4573 3.99236 23.4871 3.9475 23.5L2 24.0417C1.98379 24.0468 1.96695 24.0495 1.95 24.0495Z" fill="white"/>
<path d="M3.8175 22.9844C3.76999 22.9857 3.72378 22.9681 3.68822 22.9353C3.65266 22.9024 3.6304 22.8567 3.62596 22.8074C3.62151 22.7581 3.6352 22.7089 3.66426 22.6697C3.69333 22.6306 3.73559 22.6043 3.7825 22.5964L5.1925 22.3047L4.31 16.1459L2.935 16.4063C2.91103 16.4112 2.88636 16.4111 2.86242 16.406C2.83847 16.4009 2.81573 16.391 2.79551 16.3767C2.77529 16.3624 2.75798 16.3441 2.7446 16.3228C2.73121 16.3015 2.722 16.2776 2.7175 16.2526C2.7128 16.2273 2.71296 16.2013 2.71796 16.176C2.72297 16.1508 2.73273 16.1268 2.74667 16.1055C2.76062 16.0842 2.77847 16.066 2.79921 16.0519C2.81995 16.0378 2.84316 16.0281 2.8675 16.0235L4.4325 15.7188C4.45704 15.7134 4.48238 15.7133 4.50692 15.7187C4.53146 15.7241 4.55465 15.7348 4.575 15.75C4.59568 15.7652 4.6132 15.7845 4.62652 15.8069C4.63984 15.8293 4.64868 15.8542 4.6525 15.8802L5.59 22.4349C5.59671 22.4848 5.58493 22.5354 5.55707 22.5765C5.5292 22.6176 5.48734 22.6462 5.44 22.6563L3.855 22.9818L3.8175 22.9844Z" fill="white"/>
<path d="M11.57 19.6693C10.425 19.6693 9.36 19.5469 8.6775 19.2552C8.65405 19.2455 8.63271 19.231 8.61477 19.2126C8.59682 19.1941 8.58264 19.172 8.57307 19.1477C8.5635 19.1234 8.55874 19.0973 8.55907 19.0711C8.5594 19.0448 8.56482 19.0188 8.575 18.9948C8.58457 18.9706 8.59866 18.9486 8.61644 18.9301C8.63423 18.9116 8.65536 18.897 8.67861 18.8871C8.70186 18.8771 8.72677 18.8721 8.7519 18.8723C8.77703 18.8724 8.80188 18.8778 8.825 18.888C10.62 19.6693 15.3875 19.1484 16.575 18.4479C16.778 18.3397 16.936 18.158 17.0194 17.9369C17.1027 17.7158 17.1056 17.4706 17.0275 17.2474C16.9369 16.9915 16.7604 16.7784 16.5305 16.6477C16.3007 16.5169 16.0332 16.4774 15.7775 16.5365C15.0191 16.6894 14.2474 16.7601 13.475 16.7474C12.7082 16.7297 11.9452 16.6311 11.1975 16.4531C10.7714 16.3385 10.3536 16.1923 9.9475 16.0156C9.2925 15.7552 8.6775 15.4948 8.0025 15.4948C6.8225 15.4948 5.5975 16.0599 4.6125 16.513C4.5897 16.5257 4.56464 16.5333 4.53889 16.5354C4.51314 16.5374 4.48726 16.5339 4.46286 16.5251C4.43846 16.5163 4.41608 16.5023 4.39711 16.484C4.37815 16.4658 4.36301 16.4436 4.35265 16.419C4.34229 16.3943 4.33692 16.3677 4.3369 16.3408C4.33687 16.3139 4.34218 16.2873 4.3525 16.2626C4.36281 16.238 4.37791 16.2158 4.39684 16.1975C4.41577 16.1792 4.43812 16.1651 4.4625 16.1563C5.4775 15.6875 6.7425 15.1146 8.0025 15.1146C8.7525 15.1146 9.4175 15.375 10.0725 15.6511C10.4635 15.8204 10.8653 15.9613 11.275 16.0729C11.9978 16.2462 12.7359 16.3413 13.4775 16.3568C14.2264 16.369 14.9745 16.301 15.71 16.1537C16.0517 16.0789 16.4078 16.1356 16.7125 16.3132C17.0173 16.4908 17.2499 16.7773 17.3675 17.1198C17.4746 17.4297 17.4711 17.7693 17.3577 18.0767C17.2444 18.3841 17.0287 18.6388 16.75 18.7943C15.9375 19.2708 13.625 19.6693 11.57 19.6693Z" fill="white"/>
<path d="M13.0925 22.8828C10.6975 22.8828 5.395 21.3386 5.155 21.2682C5.13123 21.2616 5.10897 21.2501 5.08951 21.2345C5.07006 21.2188 5.0538 21.1992 5.0417 21.1769C5.02959 21.1546 5.02188 21.13 5.01901 21.1045C5.01615 21.0791 5.01818 21.0533 5.025 21.0287C5.03897 20.9788 5.07117 20.9367 5.11465 20.9114C5.15814 20.8861 5.20944 20.8796 5.2575 20.8933C5.3175 20.9115 11.4225 22.6901 13.4725 22.4766C15.1025 22.3047 19.02 19.3698 21.36 17.6146C21.9125 17.2031 22.3875 16.8334 22.7675 16.5729C22.9051 16.47 23.0013 16.3177 23.0377 16.1453C23.0741 15.973 23.0482 15.7927 22.9648 15.639C22.8815 15.4854 22.7466 15.3692 22.5861 15.3128C22.4255 15.2564 22.2507 15.2637 22.095 15.3334L17.32 17.5677C17.2975 17.5783 17.2732 17.5842 17.2486 17.585C17.2239 17.5859 17.1993 17.5816 17.1762 17.5726C17.1531 17.5635 17.132 17.5498 17.1139 17.5322C17.0959 17.5146 17.0814 17.4935 17.0713 17.4701C17.0611 17.4466 17.0554 17.4214 17.0546 17.3957C17.0538 17.37 17.0579 17.3444 17.0666 17.3203C17.0753 17.2962 17.0885 17.2742 17.1054 17.2554C17.1222 17.2367 17.1425 17.2216 17.165 17.211L21.94 14.9766C22.1818 14.859 22.4573 14.8408 22.7115 14.9256C22.9656 15.0104 23.1797 15.1919 23.311 15.4339C23.4423 15.6759 23.4812 15.9605 23.4198 16.2311C23.3584 16.5016 23.2014 16.7381 22.98 16.8933C22.6025 17.1537 22.1275 17.5209 21.58 17.9349C19.055 19.8255 15.25 22.6849 13.5 22.8646C13.3825 22.8776 13.25 22.8828 13.0925 22.8828Z" fill="white"/>
<path d="M11.205 14.4297C10.6125 14.4297 10.255 14.2813 10.14 13.9844L9.25 11.6979C9.23982 11.6739 9.2344 11.6479 9.23407 11.6217C9.23374 11.5954 9.2385 11.5693 9.24807 11.545C9.25764 11.5207 9.27182 11.4986 9.28977 11.4802C9.30771 11.4617 9.32905 11.4472 9.3525 11.4375C9.37878 11.4233 9.40793 11.416 9.4375 11.416C9.46708 11.416 9.49623 11.4233 9.5225 11.4375C9.54753 11.415 9.57758 11.3994 9.6099 11.3921C9.64222 11.3848 9.67579 11.3861 9.70751 11.3958C10.4375 11.6406 12.42 11.1875 14.5325 10.2891C17.3725 9.08334 18.95 7.71615 18.7825 7.30209C18.7664 7.25463 18.7686 7.20255 18.7884 7.15669C18.8083 7.11083 18.8444 7.07473 18.8893 7.05593C18.9341 7.03712 18.9841 7.03706 19.029 7.05575C19.0738 7.07444 19.11 7.11044 19.13 7.15625L20.13 9.71875C20.485 10.625 18.155 12.1641 15.67 13.2188C14.5195 13.7345 13.317 14.1136 12.085 14.349C11.7941 14.3993 11.4999 14.4263 11.205 14.4297ZM9.705 11.8255L10.5 13.8359C10.55 13.9662 10.9325 14.1406 12.04 13.9635C13.2413 13.7375 14.4151 13.3742 15.54 12.8802C18.38 11.6745 19.9575 10.3021 19.79 9.88803L19 7.86198C18.4375 8.73959 16.6 9.85157 14.67 10.6771C12.5 11.5885 10.5875 12.0313 9.69751 11.8203L9.705 11.8255Z" fill="white"/>
<path d="M14.6 10.6771C14.5625 10.677 14.5259 10.6653 14.4947 10.6435C14.4636 10.6217 14.4393 10.5908 14.425 10.5547C14.4148 10.5307 14.4094 10.5047 14.4091 10.4784C14.4087 10.4522 14.4135 10.4261 14.4231 10.4018C14.4326 10.3775 14.4468 10.3554 14.4648 10.3369C14.4827 10.3185 14.504 10.304 14.5275 10.2943C17.37 9.08855 18.9475 7.71876 18.7775 7.3073C18.6075 6.89584 16.6875 7.04689 13.9 8.19793C13.8768 8.20847 13.8517 8.21399 13.8264 8.21416C13.801 8.21433 13.7759 8.20915 13.7525 8.19893C13.7292 8.1887 13.708 8.17365 13.6904 8.15468C13.6728 8.13571 13.659 8.11321 13.65 8.08855C13.6395 8.0644 13.6339 8.03825 13.6336 8.01174C13.6332 7.98523 13.6381 7.95894 13.648 7.93449C13.6578 7.91005 13.6724 7.88799 13.6908 7.86969C13.7093 7.85139 13.7311 7.83724 13.755 7.82814C16.0875 6.86199 18.755 6.23959 19.1175 7.15366C19.48 8.06772 17.155 9.61459 14.67 10.6771C14.6468 10.6808 14.6232 10.6808 14.6 10.6771Z" fill="white"/>
<path d="M9.05 11.836C8.01649 11.836 7.00619 11.5167 6.14688 10.9185C5.28758 10.3203 4.61788 9.47015 4.22249 8.47547C3.8271 7.4808 3.72377 6.38632 3.92558 5.33046C4.12739 4.27461 4.62527 3.30482 5.35625 2.54375C6.08723 1.78267 7.01847 1.26451 8.03219 1.0548C9.0459 0.845082 10.0966 0.953238 11.0513 1.36558C12.006 1.77793 12.8218 2.47594 13.3956 3.37133C13.9695 4.26672 14.2755 5.31927 14.275 6.39585C14.2737 7.83868 13.7227 9.22198 12.743 10.242C11.7634 11.262 10.4351 11.8353 9.05 11.836ZM9.05 1.34116C8.09087 1.34116 7.15327 1.63739 6.35574 2.19241C5.55822 2.74742 4.93658 3.5363 4.56942 4.45929C4.20226 5.38229 4.10607 6.39796 4.29301 7.3779C4.47994 8.35783 4.94161 9.25803 5.61965 9.96468C6.29768 10.6713 7.16164 11.1527 8.10228 11.3479C9.04292 11.5432 10.018 11.4435 10.9043 11.0615C11.7905 10.6795 12.5482 10.0324 13.0814 9.20192C13.6146 8.37146 13.8995 7.39494 13.9 6.39585C13.8993 5.05592 13.3882 3.77104 12.4789 2.82332C11.5696 1.87561 10.3363 1.34254 9.05 1.34116Z" fill="white"/>
<path d="M18.5275 11.6198C18.4902 11.6202 18.4536 11.6091 18.4225 11.5877C18.3913 11.5664 18.3669 11.5359 18.3525 11.5L17.39 9.03909C17.3711 8.98936 17.3719 8.93385 17.3923 8.88477C17.4127 8.83568 17.451 8.79705 17.4988 8.77737C17.5465 8.75768 17.5998 8.75856 17.6469 8.77981C17.694 8.80105 17.7311 8.84092 17.75 8.89065L18.7125 11.3516C18.7227 11.3756 18.7281 11.4016 18.7284 11.4278C18.7288 11.4541 18.724 11.4802 18.7144 11.5045C18.7049 11.5288 18.6907 11.5509 18.6727 11.5693C18.6548 11.5878 18.6335 11.6023 18.61 11.612C18.5832 11.6198 18.5552 11.6224 18.5275 11.6198Z" fill="white"/>
<path d="M16.87 12.6667C16.834 12.6672 16.7986 12.6566 16.7683 12.6362C16.7381 12.6158 16.7143 12.5865 16.7 12.5521L15.62 10.0182C15.601 9.97113 15.6005 9.91816 15.6185 9.87066C15.6366 9.82316 15.6718 9.78492 15.7166 9.76414C15.7614 9.74336 15.8122 9.74169 15.8582 9.7595C15.9042 9.7773 15.9416 9.81316 15.9625 9.85938L17.0425 12.3932C17.0628 12.4409 17.0642 12.495 17.0464 12.5438C17.0286 12.5926 16.9931 12.632 16.9475 12.6536C16.9227 12.663 16.8964 12.6674 16.87 12.6667Z" fill="white"/>
<path d="M15.07 13.4792C15.0331 13.4791 14.9971 13.4677 14.9664 13.4464C14.9357 13.4251 14.9118 13.3948 14.8975 13.3594L13.8975 10.7943C13.8866 10.7703 13.8805 10.7443 13.8798 10.7178C13.8791 10.6913 13.8838 10.665 13.8934 10.6404C13.9031 10.6159 13.9175 10.5938 13.9359 10.5754C13.9542 10.5571 13.9761 10.5429 14 10.5339C14.0231 10.5233 14.048 10.5176 14.0732 10.5173C14.0984 10.5169 14.1235 10.5219 14.1468 10.5318C14.1701 10.5418 14.1913 10.5566 14.2091 10.5753C14.2268 10.594 14.2407 10.6162 14.25 10.6406L15.25 13.2031C15.2598 13.2272 15.265 13.2531 15.2651 13.2793C15.2653 13.3055 15.2605 13.3314 15.2509 13.3556C15.2414 13.3798 15.2274 13.4019 15.2096 13.4204C15.1918 13.4389 15.1707 13.4536 15.1475 13.4635C15.123 13.4745 15.0966 13.4798 15.07 13.4792Z" fill="white"/>
<path d="M13.08 14.1198C13.0429 14.1192 13.0068 14.1072 12.9762 14.0855C12.9455 14.0637 12.9216 14.0331 12.9075 13.9974L11.9075 11.4349C11.8933 11.4108 11.8842 11.3837 11.881 11.3555C11.8778 11.3274 11.8805 11.2989 11.889 11.2719C11.8974 11.245 11.9114 11.2203 11.9299 11.1996C11.9485 11.1788 11.9711 11.1625 11.9963 11.1518C12.0215 11.1411 12.0486 11.1362 12.0757 11.1375C12.1029 11.1388 12.1295 11.1462 12.1536 11.1593C12.1778 11.1723 12.1989 11.1907 12.2155 11.2131C12.2322 11.2355 12.2439 11.2614 12.25 11.2891L13.25 13.8516C13.2594 13.8809 13.262 13.9121 13.2578 13.9426C13.2535 13.9732 13.2424 14.0023 13.2254 14.0276C13.2084 14.0529 13.1859 14.0738 13.1598 14.0884C13.1337 14.1031 13.1047 14.1111 13.075 14.112L13.08 14.1198Z" fill="white"/>
<path d="M9.0525 9.08857C8.2675 9.08857 7.59 8.56774 7.48 7.85159C7.47571 7.82643 7.47626 7.80064 7.48162 7.77571C7.48699 7.75077 7.49706 7.7272 7.51125 7.70636C7.52544 7.68552 7.54347 7.66783 7.56428 7.65431C7.5851 7.64079 7.60829 7.63173 7.6325 7.62763C7.68186 7.61932 7.73237 7.63161 7.77308 7.66184C7.81379 7.69206 7.84143 7.73778 7.85 7.78909C7.9325 8.30992 8.45 8.69794 9.0525 8.69794C9.28914 8.70504 9.52286 8.64199 9.72644 8.51614C9.93003 8.39028 10.0951 8.20678 10.2025 7.98701C10.2827 7.77165 10.2887 7.53397 10.2194 7.31455C10.1501 7.09513 10.0098 6.90756 9.8225 6.78388C9.58186 6.66536 9.32093 6.59808 9.055 6.58596C8.83733 6.56705 8.62206 6.52517 8.4125 6.46096C8.142 6.37196 7.90499 6.19708 7.73464 5.9608C7.5643 5.72452 7.46914 5.43867 7.4625 5.14326C7.4625 4.34638 8.175 3.69794 9.0525 3.69794C9.39753 3.6828 9.73762 3.78734 10.0195 3.99517C10.3013 4.203 10.509 4.50238 10.61 4.84638C10.6174 4.89405 10.6076 4.94288 10.5825 4.98345C10.5573 5.02403 10.5187 5.05347 10.4739 5.06609C10.4292 5.07871 10.3815 5.07363 10.3402 5.05181C10.2988 5.02999 10.2667 4.99299 10.25 4.94794C10.1688 4.68931 10.0079 4.46586 9.79228 4.31233C9.57662 4.1588 9.31831 4.0838 9.0575 4.09899C8.3875 4.09899 7.8425 4.57294 7.8425 5.15367C7.84887 5.36642 7.91875 5.5718 8.04242 5.74124C8.16609 5.91067 8.3374 6.03572 8.5325 6.09899C8.71877 6.15407 8.90962 6.19069 9.1025 6.20836C9.41862 6.22494 9.72821 6.30822 10.0125 6.45315C10.28 6.62397 10.481 6.88782 10.5798 7.19806C10.6786 7.50829 10.6689 7.84494 10.5525 8.14846C10.4174 8.44023 10.2036 8.6846 9.93713 8.85159C9.67068 9.01859 9.36323 9.10095 9.0525 9.08857Z" fill="white"/>
<path d="M9.05251 4.08856C9.00298 4.08789 8.95566 4.06709 8.92064 4.03061C8.88562 3.99413 8.86565 3.94484 8.86501 3.89325V3.19794C8.86501 3.14614 8.88476 3.09646 8.91992 3.05983C8.95509 3.0232 9.00278 3.00262 9.05251 3.00262C9.10223 3.00262 9.14993 3.0232 9.18509 3.05983C9.22025 3.09646 9.24001 3.14614 9.24001 3.19794V3.90627C9.23683 3.95578 9.21568 4.00218 9.18086 4.03603C9.14603 4.06989 9.10014 4.08867 9.05251 4.08856Z" fill="white"/>
<path d="M9.05251 9.78127C9.00278 9.78127 8.95509 9.76069 8.91992 9.72406C8.88476 9.68744 8.86501 9.63776 8.86501 9.58596V8.89325C8.86501 8.84145 8.88476 8.79177 8.91992 8.75514C8.95509 8.71851 9.00278 8.69794 9.05251 8.69794C9.10223 8.69794 9.14993 8.71851 9.18509 8.75514C9.22025 8.79177 9.24001 8.84145 9.24001 8.89325V9.58596C9.24034 9.6117 9.23572 9.63726 9.22642 9.66111C9.21711 9.68497 9.20332 9.70664 9.18584 9.72484C9.16836 9.74305 9.14756 9.75742 9.12465 9.76712C9.10175 9.77681 9.07722 9.78162 9.05251 9.78127Z" fill="white"/>
</g>
<defs>
<clipPath id="clip0_1168_145">
<rect width="24" height="25" fill="white"/>
</clipPath>
</defs>
</svg>
