<svg width="31" height="36" viewBox="0 0 31 36" fill="none" xmlns="http://www.w3.org/2000/svg">
<path d="M22.093 19.3149C22.093 19.6059 23.2385 20.4483 25.423 20.4483C27.5888 20.4483 28.7561 19.6439 28.7561 19.3149C28.7561 18.9858 27.5888 18.1807 25.423 18.1807C23.2385 18.1807 22.093 19.0231 22.093 19.3149Z" fill="#DFF7F4"/>
<path d="M22.093 21.0234V21.8503C23.0187 22.1196 23.7689 22.5675 24.111 23.1968C24.5458 23.2757 24.9853 23.315 25.4255 23.3142C27.5912 23.3142 28.7586 22.5091 28.7586 22.1801V21.0234C27.8952 21.529 26.657 21.7891 25.4255 21.7891C24.1939 21.7891 22.9564 21.5297 22.093 21.0234Z" fill="#DFF7F4"/>
<path d="M16.166 19.0378C16.2331 18.9386 16.2851 18.8268 16.3198 18.7073C16.348 18.6238 16.3653 18.5359 16.3713 18.4465V18.4345C16.3828 17.872 16.2901 17.4502 16.0952 17.19C15.9605 17.0229 15.7948 16.8936 15.6108 16.8117V19.4548C15.6755 19.4332 15.7381 19.4035 15.7973 19.3662C15.9373 19.2854 16.0625 19.1739 16.166 19.0378Z" fill="#DFF7F4"/>
<path d="M28.3577 7.62469C28.3309 7.54067 28.2897 7.46375 28.2368 7.39849C28.1839 7.33323 28.1203 7.28094 28.0497 7.24472C27.9791 7.2085 27.9029 7.18909 27.8258 7.18761C27.7486 7.18614 27.6719 7.20265 27.6004 7.23616C27.5288 7.26967 27.4637 7.3195 27.409 7.38271C27.3542 7.44592 27.311 7.52122 27.2817 7.60418C27.2525 7.68713 27.2379 7.77605 27.2387 7.86568C27.2396 7.95531 27.2559 8.04383 27.2867 8.12602C27.4629 8.63649 27.2213 9.2011 26.9028 9.53227C26.8485 9.5898 26.7902 9.64201 26.7284 9.68836C26.6606 9.21867 26.4814 8.72227 26.192 8.20336C25.7233 7.35961 25.0719 6.9525 24.4391 7.11774C23.9154 7.25836 23.5309 7.76742 23.4547 8.42414C23.3451 9.38813 23.8936 10.338 24.9217 10.9645C24.9744 10.9969 25.0289 11.0264 25.0828 11.0545C24.8037 11.2577 24.4964 11.4031 24.1746 11.4841L23.8258 11.5439C23.0549 10.2098 22.0133 9.11646 20.7927 8.36016C19.5721 7.60385 18.2101 7.20785 16.8266 7.20703C16.8266 7.20703 16.2399 7.10157 14.7474 7.10157C13.2549 7.10157 12.3788 7.20985 12.3788 7.20985C11.7233 7.21271 11.0703 7.30378 10.4328 7.48125C9.21766 4.22438 6.78126 5.32758 6.78126 5.32758L7.64405 8.89735C5.91785 10.2597 4.68613 12.3149 4.18561 14.6679L2.26506 15.8393C2.19454 16.9603 2.29957 18.0869 2.57506 19.1644L4.27038 19.7726C4.83281 22.0077 6.06036 23.9383 7.73426 25.2204L7.88987 28.3219C7.88987 28.3219 8.54983 28.9547 9.71415 28.3718L10.1682 26.4895C10.8886 26.7199 11.6322 26.8382 12.3794 26.8411C12.3794 26.8411 13.393 26.8636 14.5155 26.8636C14.794 26.8636 15.0707 26.8636 15.3377 26.8594V23.9857C15.3377 22.0873 18.3917 21.3005 20.9371 21.6176V19.3148C20.9371 17.7265 23.0811 16.9165 25.2729 16.8799C25.2554 15.4636 24.9728 14.0687 24.4446 12.792C24.7158 12.7259 25.9583 12.3666 26.508 11.2352C26.9452 11.1262 27.3492 10.8834 27.6784 10.5321C28.4298 9.7418 28.6992 8.60063 28.3577 7.62469ZM17.7057 18.4957C17.6688 19.0948 17.4478 19.6636 17.0494 20.1741C16.7109 20.6016 16.2308 20.8828 15.6114 21.0136V21.2815C15.6151 21.4121 15.5914 21.5417 15.5423 21.6593C15.4933 21.7769 15.4204 21.8789 15.3299 21.9565C15.196 22.075 15.0326 22.1398 14.8643 22.1414H14.8588C14.6839 22.1404 14.5149 22.0677 14.3817 21.9361C14.3005 21.856 14.2361 21.7553 14.1935 21.6419C14.1509 21.5284 14.1312 21.4051 14.1359 21.2815V21.0396C13.5369 20.9679 12.9594 20.7416 12.4454 20.3773C11.8145 19.9076 11.4258 19.2263 11.2847 18.3502C11.2602 18.2435 11.2584 18.1314 11.2795 18.0238C11.3006 17.9161 11.344 17.816 11.4058 17.7321C11.471 17.6404 11.5553 17.5696 11.6506 17.5264C11.746 17.4832 11.8493 17.469 11.9507 17.4853C12.3062 17.4966 12.5756 17.763 12.6168 18.1631C12.6882 18.4957 12.8783 18.8191 13.1883 19.0913C13.419 19.2938 13.7387 19.4316 14.1401 19.5026V16.4848C13.5332 16.3993 12.9591 16.118 12.483 15.6727C11.9665 15.1509 11.6674 14.4773 11.5844 13.6568C11.5481 13.213 11.6012 12.7655 11.7394 12.3497C11.8783 11.9509 12.0891 11.5913 12.3576 11.295C12.6408 10.9847 12.9759 10.7453 13.3421 10.5919C13.5998 10.4818 13.867 10.404 14.1389 10.3598V10.0695C14.1361 9.9514 14.1548 9.83398 14.1938 9.72492C14.2329 9.61586 14.2913 9.51762 14.3654 9.43664C14.6808 9.12235 15.0604 9.13922 15.3492 9.4036C15.4331 9.48443 15.5006 9.58577 15.5469 9.70039C15.5931 9.815 15.617 9.94006 15.6169 10.0666V10.447C16.1027 10.5788 16.5478 10.8634 16.9035 11.2697C17.3624 11.7956 17.607 12.5002 17.6252 13.3622C17.5423 13.8888 17.3122 14.1539 16.9979 14.1989C16.6189 14.2545 16.3277 13.9577 16.2841 13.5042C16.269 13.3146 16.2355 13.1275 16.1842 12.9466C16.1371 12.784 16.0644 12.6328 15.9698 12.5009C15.8674 12.3556 15.7487 12.227 15.6169 12.1184V15.1875C15.9433 15.2772 16.2551 15.4275 16.5402 15.6326C16.8454 15.8478 17.108 16.1353 17.311 16.4763C17.4891 16.7924 17.6096 17.1475 17.6652 17.5198C17.7185 17.8412 17.7322 18.1698 17.7057 18.4957ZM25.4557 9.77696C24.7722 9.36071 24.5663 8.88328 24.5984 8.60133C24.6087 8.50922 24.6462 8.44032 24.6916 8.42836C24.6991 8.42756 24.7066 8.42756 24.714 8.42836C24.8109 8.42836 25.0083 8.55633 25.2202 8.93672C25.3846 9.21204 25.5053 9.51919 25.5768 9.84375C25.536 9.82473 25.4961 9.8029 25.4575 9.77836L25.4557 9.77696Z" fill="#DFF7F4"/>
<path d="M13.2598 14.3501C13.4133 14.5143 13.5872 14.6508 13.7756 14.7551C13.8905 14.8184 14.0103 14.8688 14.1335 14.9056V11.906C13.7998 11.9925 13.5353 12.1528 13.3433 12.3841C13.2122 12.5363 13.1105 12.7194 13.0453 12.9209C12.98 13.1225 12.9526 13.3379 12.9649 13.5527C12.9791 13.709 13.0087 13.8628 13.0533 14.0112C13.1004 14.14 13.1708 14.2556 13.2598 14.3501Z" fill="#DFF7F4"/>
<path d="M24.3138 24.5714V26.0894C24.6821 26.1494 25.0535 26.18 25.4255 26.1809C27.5912 26.1809 28.7586 25.3765 28.7586 25.0474V23.8908C27.8952 24.3963 26.657 24.6565 25.4255 24.6565C25.0538 24.6534 24.6826 24.625 24.3138 24.5714Z" fill="#DFF7F4"/>
<path d="M16.493 25.6957V26.8516C16.493 27.1807 17.6603 27.9858 19.823 27.9858C21.9858 27.9858 23.1561 27.1807 23.1561 26.8516V25.6957C22.2921 26.2006 21.0546 26.4614 19.823 26.4614C18.5915 26.4614 17.3564 26.2013 16.493 25.6957Z" fill="#DFF7F4"/>
<path d="M19.8249 22.8516C17.6603 22.8516 16.4948 23.6566 16.4948 23.9857C16.4948 24.3148 17.6621 25.1198 19.8249 25.1198C21.9876 25.1198 23.158 24.3148 23.158 23.9857C23.158 23.6566 21.9906 22.8516 19.8249 22.8516Z" fill="#DFF7F4"/>
<path d="M24.3138 27.438V28.9554C24.6821 29.0154 25.0535 29.0459 25.4255 29.0468C27.5912 29.0468 28.7598 28.2424 28.7598 27.9141V26.7567C27.8964 27.2623 26.6582 27.5224 25.4267 27.5224C25.0546 27.5196 24.683 27.4914 24.3138 27.438Z" fill="#DFF7F4"/>
<path d="M16.493 28.5616V29.7176C16.493 30.0466 17.6603 30.8524 19.823 30.8524C21.9858 30.8524 23.1561 30.0466 23.1561 29.7176V28.5616C22.2921 29.0672 21.0546 29.3273 19.823 29.3273C18.5915 29.3273 17.3564 29.0672 16.493 28.5616Z" fill="#DFF7F4"/>
</svg>
