<svg width="24" height="24" viewBox="0 0 24 24" fill="none" xmlns="http://www.w3.org/2000/svg">
<path d="M21.2939 7.68387V10.6305H14.0311C13.2814 10.6305 12.6617 11.2503 12.6617 12V15.0467C12.6617 15.7964 13.2814 16.4161 14.0311 16.4161H21.2939V19.3628C21.2939 19.7383 21.0077 20.0244 20.6322 20.0244H3.36777C2.99225 20.0244 2.7061 19.7383 2.7061 19.3628V6.81084C2.9835 6.94477 3.29405 7.02221 3.62166 7.02221H3.62175C7.52284 7.01874 11.7302 7.02001 15.5709 7.02116C17.3603 7.02169 19.07 7.02221 20.6322 7.02221C21.0077 7.02221 21.2939 7.30836 21.2939 7.68387ZM14.0309 11.8461H14.0311H21.2939V15.2005H14.0311C13.9803 15.2005 13.9431 15.1832 13.9188 15.1589C13.8946 15.1347 13.8772 15.0975 13.8772 15.0467V12C13.8772 11.9492 13.8946 11.9119 13.9189 11.8876C13.9431 11.8633 13.9802 11.846 14.0309 11.8461ZM3.62166 2.75999C2.44998 2.75999 1.49055 3.71942 1.49055 4.8911V19.3628C1.49055 20.3938 2.33674 21.24 3.36777 21.24H20.6322C21.6632 21.24 22.5094 20.3938 22.5094 19.3628V7.68387C22.5094 6.65285 21.6632 5.80665 20.6322 5.80665H19.4628V3.36776C19.4627 3.04666 19.1761 2.76002 18.855 2.75999H3.62166ZM3.62166 3.97554H18.2472V5.80665H3.62166C3.10548 5.80665 2.7061 5.40727 2.7061 4.8911C2.7061 4.37492 3.10548 3.97554 3.62166 3.97554ZM16.57 12.4078C15.9539 12.4078 15.4544 12.9072 15.4544 13.5233C15.4544 14.1394 15.9539 14.6389 16.57 14.6389C17.1861 14.6389 17.6855 14.1394 17.6855 13.5233C17.6855 12.9072 17.1861 12.4078 16.57 12.4078Z" fill="#A0AEC0" stroke="#A0AEC0" stroke-width="0.2"/>
</svg>
